<svg width="256" height="256" viewBox="0 0 256 256" fill="none" xmlns="http://www.w3.org/2000/svg">
<path d="M145.231 166.926L213.405 235.099" stroke="#var(--accent-color)" stroke-width="16"/>
<path d="M167.43 144.727L235.603 212.901" stroke="#var(--accent-color)" stroke-width="16"/>
<path d="M235.603 212.901C238.547 215.844 240.201 219.837 240.201 224C240.201 228.163 238.547 232.156 235.603 235.099" stroke="#var(--accent-color)" stroke-width="16" stroke-linecap="round" stroke-linejoin="round"/>
<path d="M213.405 235.099C216.349 238.043 220.341 239.697 224.504 239.697C228.667 239.697 232.66 238.043 235.603 235.099" stroke="#var(--accent-color)" stroke-width="16" stroke-linecap="round" stroke-linejoin="round"/>
<path d="M86.4839 15.3441C95.7599 15.3441 104.945 17.1712 113.515 20.7209C122.085 24.2707 129.872 29.4737 136.431 36.0328C142.99 42.5919 148.193 50.3787 151.743 58.9486C155.292 67.5185 157.119 76.7037 157.119 85.9797C157.119 95.2557 155.292 104.441 151.743 113.011C148.193 121.581 142.99 129.367 136.431 135.927C129.872 142.486 122.085 147.689 113.515 151.238C104.945 154.788 95.7599 156.615 86.4839 156.615C67.7502 156.615 49.7838 149.173 36.5371 135.927C23.2903 122.68 15.8484 104.713 15.8484 85.9797C15.8484 76.7037 17.6754 67.5185 21.2252 58.9486C24.775 50.3787 29.9779 42.5919 36.5371 36.0328C43.0962 29.4737 50.883 24.2707 59.4529 20.7209C68.0228 17.1712 77.2079 15.3441 86.4839 15.3441Z" stroke="#var(--accent-color)" stroke-width="16" stroke-linecap="round" stroke-linejoin="round"/>
<path d="M145.231 166.926L167.43 144.727" stroke="#var(--accent-color)" stroke-width="16" stroke-linecap="round" stroke-linejoin="round"/>
<path d="M156.331 155.827L136.431 135.927" stroke="#var(--accent-color)" stroke-width="16" stroke-linecap="round" stroke-linejoin="round"/>
<path d="M164.179 185.874L186.378 163.675" stroke="#var(--accent-color)" stroke-width="16" stroke-linecap="round" stroke-linejoin="round"/>
<path d="M86.4839 46.7378C96.8915 46.7378 106.873 50.8722 114.232 58.2315C121.591 65.5908 125.726 75.5721 125.726 85.9797" stroke="#var(--accent-color)" stroke-width="16" stroke-linecap="round" stroke-linejoin="round"/>
</svg>
