<svg width="84" height="72" viewBox="0 0 84 72" fill="none" xmlns="http://www.w3.org/2000/svg">
<path d="M75.9375 22.4584L82.45 15.9459L76.5583 10.0542L69.4417 17.1667C65.0667 14.5417 59.9667 13 54.5 13C38.4208 13 25.3333 26.0834 25.3333 42.1667C25.3333 58.25 38.4208 71.3334 54.5 71.3334C70.5792 71.3334 83.6667 58.25 83.6667 42.1667C83.6634 34.8585 80.9032 27.8205 75.9375 22.4584ZM54.5 63C43.0125 63 33.6667 53.6542 33.6667 42.1667C33.6667 30.6792 43.0125 21.3334 54.5 21.3334C65.9875 21.3334 75.3333 30.6792 75.3333 42.1667C75.3333 53.6542 65.9875 63 54.5 63Z" fill="var(--accent-color)"/>
<path d="M50.3333 29.6667H58.6667V46.3333H50.3333V29.6667ZM46.1667 0.5H62.8333V8.83333H46.1667V0.5ZM4.50001 21.3333H21.1667V29.6667H4.50001V21.3333ZM4.50001 54.6667H21.1667V63H4.50001V54.6667ZM0.333344 38H16.9583V46.3333H0.333344V38Z" fill="var(--accent-color)"/>
</svg>
